<svg width="18" height="16" viewBox="0 0 18 16" fill="none" xmlns="http://www.w3.org/2000/svg">
<path d="M14.5758 0H2.6282C1.21424 0 0.0679932 1.07452 0.0679932 2.4V13.6C0.0679932 14.9255 1.21424 16 2.6282 16H14.5758C15.9898 16 17.136 14.9255 17.136 13.6V2.4C17.136 1.07452 15.9898 0 14.5758 0Z" fill="#141414"/>
<path d="M11.9225 10.3125L12.3025 8H9.93565V6.5C9.93565 5.86875 10.2657 5.25 11.3258 5.25H12.4025V3.28125C12.4025 3.28125 11.4258 3.125 10.4924 3.125C8.5422 3.125 7.26877 4.23125 7.26877 6.2375V8H5.10193V10.3125H7.26877V16H9.93565V10.3125H11.9225Z" fill="white"/>
</svg>
