<svg width="18" height="16" viewBox="0 0 18 16" fill="none" xmlns="http://www.w3.org/2000/svg">
<path d="M5.82601 8C5.82601 6.5273 7.09927 5.33312 8.67034 5.33312C10.2414 5.33312 11.5154 6.5273 11.5154 8C11.5154 9.4727 10.2414 10.6669 8.67034 10.6669C7.09927 10.6669 5.82601 9.4727 5.82601 8ZM4.28805 8C4.28805 10.2688 6.25 12.1079 8.67034 12.1079C11.0907 12.1079 13.0526 10.2688 13.0526 8C13.0526 5.7312 11.0907 3.8921 8.67034 3.8921C6.25 3.8921 4.28805 5.7312 4.28805 8ZM12.202 3.72922C12.2018 4.25941 12.6601 4.68939 13.2257 4.6896C13.7913 4.68981 14.25 4.26018 14.2502 3.72998C14.2505 3.19979 13.7921 2.76981 13.2265 2.7696C12.6612 2.76985 12.2025 3.19928 12.202 3.72922ZM5.22246 14.5118C4.3904 14.4763 3.93814 14.3464 3.6376 14.2366C3.23915 14.0912 2.95485 13.918 2.65594 13.6382C2.35703 13.3584 2.17201 13.0922 2.01757 12.7187C1.90041 12.4371 1.76181 12.013 1.72399 11.233C1.68262 10.3898 1.67435 10.1364 1.67435 8.00006C1.67435 5.86368 1.6833 5.61107 1.72399 4.7671C1.76188 3.98714 1.9015 3.5639 2.01757 3.28147C2.17269 2.90797 2.35744 2.64147 2.65594 2.36128C2.95444 2.08109 3.23846 1.90765 3.6376 1.76288C3.93801 1.65306 4.3904 1.52314 5.22246 1.48768C6.12205 1.4489 6.39228 1.44115 8.67034 1.44115C10.9484 1.44115 11.2189 1.44954 12.1192 1.48768C12.9513 1.5232 13.4028 1.65408 13.7041 1.76288C14.1026 1.90765 14.3869 2.08147 14.6858 2.36128C14.9847 2.64109 15.169 2.90797 15.3241 3.28147C15.4413 3.56307 15.5799 3.98714 15.6177 4.7671C15.6591 5.61107 15.6673 5.86368 15.6673 8.00006C15.6673 10.1364 15.6591 10.3891 15.6177 11.233C15.5798 12.013 15.4405 12.4369 15.3241 12.7187C15.169 13.0922 14.9843 13.3587 14.6858 13.6382C14.3873 13.9178 14.1026 14.0912 13.7041 14.2366C13.4037 14.3464 12.9513 14.4764 12.1192 14.5118C11.2197 14.5506 10.9494 14.5583 8.67034 14.5583C6.39126 14.5583 6.12178 14.5506 5.22246 14.5118ZM5.1518 0.048448C4.24326 0.087232 3.62244 0.222272 3.08027 0.420032C2.51878 0.624256 2.04345 0.89824 1.56846 1.34278C1.09347 1.78733 0.801939 2.2336 0.584074 2.75994C0.373105 3.26848 0.229045 3.85011 0.18767 4.70176C0.145613 5.55475 0.135986 5.82746 0.135986 8C0.135986 10.1725 0.145613 10.4452 0.18767 11.2982C0.229045 12.15 0.373105 12.7315 0.584074 13.2401C0.801939 13.7661 1.09354 14.2129 1.56846 14.6572C2.04338 15.1016 2.51878 15.3752 3.08027 15.58C3.62346 15.7777 4.24326 15.9128 5.1518 15.9516C6.06224 15.9903 6.35268 16 8.67034 16C10.988 16 11.2789 15.991 12.1889 15.9516C13.0975 15.9128 13.7179 15.7777 14.2604 15.58C14.8216 15.3752 15.2972 15.1018 15.7722 14.6572C16.2472 14.2127 16.5381 13.7661 16.7566 13.2401C16.9676 12.7315 17.1123 12.1499 17.153 11.2982C17.1944 10.4446 17.204 10.1725 17.204 8C17.204 5.82746 17.1944 5.55475 17.153 4.70176C17.1116 3.85005 16.9676 3.26816 16.7566 2.75994C16.5381 2.23392 16.2465 1.78803 15.7722 1.34278C15.298 0.897536 14.8216 0.624256 14.2611 0.420032C13.7179 0.222272 13.0974 0.086592 12.1896 0.048448C11.2796 0.009664 10.9887 0 8.67102 0C6.35336 0 6.06224 0.009024 5.1518 0.048448Z" fill="#141414"/>
</svg>
