<svg width="18" height="17" viewBox="0 0 18 17" fill="none" xmlns="http://www.w3.org/2000/svg">
<path d="M14.5078 0.226074H2.5602C1.14624 0.226074 0 1.30059 0 2.62607V13.8261C0 15.1516 1.14624 16.2261 2.5602 16.2261H14.5078C15.9218 16.2261 17.068 15.1516 17.068 13.8261V2.62607C17.068 1.30059 15.9218 0.226074 14.5078 0.226074Z" fill="#141414"/>
<path d="M14.5678 4.976C14.1726 5.22174 13.7086 5.35223 13.2344 5.351C13.7414 5.07101 14.121 4.62616 14.3011 4.101C13.8808 4.43406 13.3512 4.62162 12.801 4.63225C12.4382 4.28395 11.9647 4.05533 11.4516 3.9807C10.9384 3.90607 10.4133 3.98947 9.95503 4.21836C9.49674 4.44725 9.12999 4.8093 8.90983 5.25018C8.68967 5.69105 8.62798 6.18697 8.734 6.6635C7.80037 6.61729 6.88755 6.38753 6.0548 5.98914C5.22205 5.59074 4.48799 5.03261 3.90028 4.351C3.6127 4.83882 3.52849 5.40935 3.66399 5.95204C3.79948 6.49474 4.14502 6.97098 4.63367 7.2885C4.26489 7.29338 3.89986 7.21853 3.56692 7.06975C3.57589 7.57313 3.76469 8.05915 4.10313 8.45007C4.44157 8.84098 4.91009 9.11419 5.43374 9.226C5.08516 9.31133 4.72057 9.32201 4.36699 9.25725C4.51952 9.7032 4.81668 10.0934 5.21705 10.3735C5.61742 10.6536 6.10105 10.8096 6.6005 10.8197C5.54566 11.4196 4.33395 11.7333 3.10022 11.726C4.13348 12.3583 5.33367 12.7095 6.56719 12.7403C7.80071 12.7712 9.01917 12.4805 10.0869 11.9007C11.1547 11.3208 12.0298 10.4746 12.6149 9.45617C13.2 8.43774 13.4722 7.28707 13.401 6.13225C13.8409 5.79502 14.233 5.40645 14.5678 4.976Z" fill="white"/>
</svg>
